<svg width="25" height="24" viewBox="0 0 25 24" fill="none" xmlns="http://www.w3.org/2000/svg">
<path d="M2.00977 9V7C2.00977 6.20435 2.32584 5.44129 2.88845 4.87868C3.45105 4.31607 4.21412 4 5.00977 4H10.0098C11.3158 4 12.4268 4.835 12.8398 6H19.0098C19.8054 6 20.5685 6.31607 21.1311 6.87868C21.6937 7.44129 22.0098 8.20435 22.0098 9H2.00977ZM2.00977 11H22.0098V17C22.0098 17.7956 21.6937 18.5587 21.1311 19.1213C20.5685 19.6839 19.8054 20 19.0098 20H5.00977C4.21412 20 3.45105 19.6839 2.88845 19.1213C2.32584 18.5587 2.00977 17.7956 2.00977 17V11Z" fill="#0F172A"/>
</svg>
