<svg width="24" height="24" viewBox="0 0 24 24" fill="none" xmlns="http://www.w3.org/2000/svg">
<path d="M12.0193 2.28467C6.63569 2.28467 2.26929 6.6492 2.26929 12.0347C2.26929 17.4201 6.63429 21.7847 12.0193 21.7847C17.4043 21.7847 21.7693 17.4197 21.7693 12.0347C21.7693 6.64967 17.4024 2.28467 12.0193 2.28467ZM17.8698 11.8125C17.7362 13.342 17.0832 14.1422 16.5573 14.5434C16.0313 14.9447 15.3999 15.1219 14.8543 15.0244C14.5994 14.9783 14.3562 14.882 14.1389 14.741C13.9216 14.6 13.7346 14.4171 13.5887 14.2031C13.3203 14.4725 13.0007 14.6856 12.6487 14.8297C12.2968 14.9738 11.9196 15.046 11.5393 15.0422C11.1996 15.0448 10.8631 14.9759 10.5518 14.84C10.2405 14.7041 9.96126 14.5042 9.73226 14.2533C9.19835 13.6711 8.93538 12.8301 9.01366 11.9456C9.15663 10.305 10.463 9.25545 11.6794 9.06373C12.9549 8.86264 14.1282 9.37029 14.6283 9.97592L14.8083 10.1944L14.5112 12.5559C14.4554 13.2281 14.6654 13.6565 15.0873 13.7325C15.1993 13.7522 15.4674 13.7264 15.7613 13.5014C16.0763 13.26 16.471 12.7514 16.5629 11.6981C16.6716 10.4536 16.359 9.39232 15.6591 8.62826C14.9326 7.83607 13.8263 7.41701 12.4604 7.41701C9.92913 7.41701 7.68804 9.49967 7.46491 12.0576C7.35757 13.2858 7.73022 14.4333 8.51444 15.2887C9.28132 16.125 10.3594 16.5881 11.5449 16.5881C12.4355 16.5881 12.9798 16.492 13.8648 16.1765L14.4844 15.9567L14.9246 17.1928L14.3063 17.4131C13.2835 17.7773 12.5869 17.9006 11.5463 17.9006C9.98632 17.9006 8.56647 17.2884 7.54788 16.177C6.51241 15.0469 6.01882 13.544 6.15804 11.9447C6.29444 10.3823 7.02335 8.91514 8.20976 7.81404C9.39616 6.71295 10.9083 6.10357 12.4613 6.10357C14.2051 6.10357 15.646 6.66982 16.6276 7.74092C17.5674 8.76795 18.0094 10.2136 17.8698 11.8125Z" fill="white"/>
<path d="M11.8832 10.3594C11.1881 10.4686 10.4043 11.1019 10.3204 12.0591C10.2735 12.5775 10.4141 13.0538 10.6991 13.3655C10.8051 13.4824 10.9349 13.5752 11.0797 13.6379C11.2244 13.7005 11.3809 13.7315 11.5387 13.7288C12.4621 13.7288 13.1231 13.0355 13.2637 11.9199L13.3457 11.2688H13.3499L13.4273 10.6543C12.9624 10.3796 12.4166 10.2752 11.8832 10.3589V10.3594Z" fill="white"/>
</svg>
