<svg width="24" height="24" viewBox="0 0 24 24" fill="none" xmlns="http://www.w3.org/2000/svg">
<path d="M16.3748 3.24984C17.5342 3.25331 18.6451 3.71539 19.4648 4.53517C20.2846 5.35495 20.7467 6.46582 20.7502 7.62516V16.3748C20.7467 17.5342 20.2846 18.6451 19.4648 19.4648C18.6451 20.2846 17.5342 20.7467 16.3748 20.7502H7.62516C6.46582 20.7467 5.35495 20.2846 4.53517 19.4648C3.71539 18.6451 3.25331 17.5342 3.24984 16.3748V7.62516C3.25331 6.46582 3.71539 5.35495 4.53517 4.53517C5.35495 3.71539 6.46582 3.25331 7.62516 3.24984H16.3748V3.24984ZM16.3748 1.5H7.62516C4.25625 1.5 1.5 4.25625 1.5 7.62516V16.3748C1.5 19.7437 4.25625 22.5 7.62516 22.5H16.3748C19.7437 22.5 22.5 19.7437 22.5 16.3748V7.62516C22.5 4.25625 19.7437 1.5 16.3748 1.5V1.5Z" fill="white"/>
<path d="M17.6874 7.62524C17.4278 7.62524 17.174 7.54827 16.9582 7.40405C16.7424 7.25983 16.5741 7.05484 16.4748 6.81502C16.3754 6.57519 16.3495 6.31129 16.4001 6.05669C16.4507 5.80209 16.5757 5.56822 16.7593 5.38467C16.9429 5.20111 17.1767 5.07611 17.4313 5.02546C17.6859 4.97482 17.9498 5.00081 18.1897 5.10015C18.4295 5.19949 18.6345 5.36772 18.7787 5.58356C18.9229 5.7994 18.9999 6.05316 18.9999 6.31274C19.0002 6.48521 18.9666 6.65605 18.9007 6.81545C18.8349 6.97486 18.7382 7.1197 18.6163 7.24165C18.4943 7.3636 18.3495 7.46026 18.1901 7.52609C18.0307 7.59192 17.8598 7.62562 17.6874 7.62524V7.62524Z" fill="white"/>
<path d="M12 8.49984C12.6923 8.49984 13.369 8.70512 13.9446 9.08973C14.5202 9.47433 14.9688 10.021 15.2337 10.6605C15.4986 11.3001 15.568 12.0039 15.4329 12.6828C15.2978 13.3618 14.9645 13.9855 14.475 14.475C13.9855 14.9645 13.3618 15.2978 12.6828 15.4329C12.0039 15.568 11.3001 15.4986 10.6606 15.2337C10.021 14.9688 9.47433 14.5202 9.08973 13.9446C8.70513 13.369 8.49985 12.6923 8.49985 12C8.50084 11.072 8.86992 10.1823 9.52611 9.52611C10.1823 8.86992 11.072 8.50084 12 8.49984V8.49984ZM12 6.75C10.9617 6.75 9.94662 7.05791 9.08326 7.63478C8.2199 8.21166 7.54699 9.0316 7.14963 9.99091C6.75227 10.9502 6.64831 12.0058 6.85088 13.0242C7.05345 14.0426 7.55347 14.9781 8.28769 15.7123C9.02192 16.4465 9.95738 16.9466 10.9758 17.1491C11.9942 17.3517 13.0498 17.2477 14.0091 16.8504C14.9684 16.453 15.7883 15.7801 16.3652 14.9167C16.9421 14.0534 17.25 13.0384 17.25 12C17.25 10.6076 16.6969 9.27226 15.7123 8.28769C14.7277 7.30312 13.3924 6.75 12 6.75V6.75Z" fill="white"/>
</svg>
