<svg width="24" height="24" viewBox="0 0 24 24" fill="none" xmlns="http://www.w3.org/2000/svg">
<path d="M22.1719 1.83051C22.0185 1.67718 21.8241 1.57144 21.612 1.52603C21.3999 1.48063 21.1793 1.49748 20.9765 1.57458L2.22514 8.67192H2.22139C2.00519 8.75508 1.81992 8.90295 1.6909 9.09534C1.56188 9.28772 1.49539 9.51525 1.50052 9.74684C1.50565 9.97843 1.58214 10.2028 1.71955 10.3893C1.85696 10.5758 2.04859 10.7153 2.26827 10.7888L2.28749 10.7949L8.72342 13.5432C8.84895 13.5813 8.98229 13.5858 9.11011 13.5563C9.23793 13.5267 9.35577 13.4642 9.45186 13.3749L19.7812 3.75005C19.812 3.71927 19.8486 3.69485 19.8888 3.67819C19.929 3.66154 19.9721 3.65296 20.0156 3.65296C20.0591 3.65296 20.1022 3.66154 20.1425 3.67819C20.1827 3.69485 20.2192 3.71927 20.25 3.75005C20.2808 3.78082 20.3052 3.81736 20.3218 3.85758C20.3385 3.89779 20.3471 3.94089 20.3471 3.98442C20.3471 4.02795 20.3385 4.07105 20.3218 4.11126C20.3052 4.15148 20.2808 4.18802 20.25 4.2188L10.6247 14.5435C10.5354 14.6396 10.4728 14.7574 10.4433 14.8852C10.4138 15.0131 10.4183 15.1464 10.4564 15.2719L13.2056 21.7116C13.2084 21.721 13.2112 21.7294 13.2145 21.7383C13.3645 22.1729 13.7442 22.4794 14.2031 22.5C14.2233 22.5 14.2303 22.5 14.25 22.5C14.4817 22.5014 14.7084 22.433 14.9006 22.3037C15.0929 22.1745 15.2419 21.9904 15.3281 21.7754L22.4245 3.02911C22.5027 2.82627 22.5205 2.60512 22.4756 2.39241C22.4308 2.1797 22.3253 1.98453 22.1719 1.83051V1.83051Z" fill="white"/>
</svg>
