<svg width="24" height="24" viewBox="0 0 24 24" fill="none" xmlns="http://www.w3.org/2000/svg">
<path d="M12.0098 2C17.5328 2 22.0098 6.477 22.0098 12C22.0098 17.523 17.5328 22 12.0098 22C6.48677 22 2.00977 17.523 2.00977 12C2.00977 6.477 6.48677 2 12.0098 2ZM16.4518 8C16.0708 8.007 15.4858 8.207 12.6728 9.362C10.6983 10.1863 8.72921 11.0237 6.76577 11.874C6.28577 12.063 6.03577 12.247 6.01277 12.427C5.96877 12.773 6.47277 12.88 7.10677 13.084C7.62377 13.25 8.31977 13.444 8.68177 13.452C9.00977 13.459 9.37577 13.325 9.77977 13.052C12.5398 11.212 13.9628 10.283 14.0528 10.263C14.1158 10.249 14.2028 10.231 14.2628 10.283C14.3218 10.335 14.3158 10.433 14.3088 10.46C14.2588 10.671 11.6678 12.998 11.5188 13.151L11.4468 13.223C10.8968 13.766 10.3418 14.121 11.2998 14.744C12.1658 15.307 12.6698 15.666 13.5598 16.244C14.1298 16.612 14.5768 17.049 15.1648 16.996C15.4358 16.971 15.7148 16.72 15.8578 15.97C16.1928 14.2 16.8528 10.362 17.0048 8.78C17.014 8.64878 17.0083 8.51694 16.9878 8.387C16.9754 8.28209 16.924 8.18569 16.8438 8.117C16.7228 8.019 16.5348 7.999 16.4518 8V8Z" fill="white"/>
</svg>
